<mxfile host="app.diagrams.net" modified="2023-10-28T01:09:00.700Z" agent="Mozilla/5.0 (Windows NT 10.0; Win64; x64) AppleWebKit/537.36 (KHTML, like Gecko) Chrome/118.0.0.0 Safari/537.36" version="22.0.8" etag="I9XuLWVvpLDDGH7RdhGo" type="github">
  <diagram name="PÃ¡gina-1" id="rz0FdX4jZ3rVevT7HsPx">
    <mxGraphModel>
      <root>
        <mxCell id="0" />
        <mxCell id="1" parent="0" />
      </root>
    </mxGraphModel>
  </diagram>
</mxfile>
